# Blender v2.75 (sub 0) OBJ File: 'untitled.blend'
# www.blender.org
mtllib el car.mtl
o el_car_Cube
v 0.999964 -1.000000 0.850035
v 0.999964 -0.999965 1.230007
v 0.650000 -0.999964 1.230043
v 0.649964 -1.000000 2.060294
v -0.650000 -0.999964 2.060294
v -0.650000 -0.999964 1.230043
v -0.999964 -0.999965 1.230007
v -0.999964 -1.000000 0.890035
v -0.649964 -1.000000 0.890035
v -0.649964 -1.000000 0.060366
v 0.649964 -1.000000 0.060366
v 0.649964 -1.000000 0.850035
v 0.999964 -0.770425 0.804335
v 0.650036 -0.770425 0.804335
v 0.999964 -0.437721 0.060366
v 1.000000 0.999964 0.060367
v 0.999964 -0.446118 2.060330
v 0.999964 -0.445692 2.059639
v 0.999964 -0.400007 1.830035
v 0.999964 -0.445665 1.600424
v 0.999964 -0.575716 1.405765
v 0.999964 -0.770425 1.275665
v 0.999964 -0.575766 0.674284
v 0.999964 -0.445692 0.479640
v 0.999964 -0.400007 0.250035
v 0.650000 -0.770404 1.275705
v 0.650000 -0.575762 1.405761
v 0.650000 -0.445706 1.600404
v 0.650000 -0.400036 1.830000
v 0.650000 -0.445706 2.059597
v 0.649965 -0.446118 2.060329
v -0.999964 -0.446118 2.060329
v -0.650036 -0.446133 2.060300
v -0.650036 -0.445692 2.059639
v -0.650036 -0.400007 1.830035
v -0.650036 -0.445665 1.600424
v -0.650000 -0.575762 1.405761
v -0.650036 -0.770425 1.275665
v -0.999964 -0.770425 1.275665
v -0.999999 0.999964 0.060366
v -0.999964 -0.445665 0.060424
v -0.999964 -0.400007 0.290035
v -0.999964 -0.445692 0.519640
v -0.999964 -0.575766 0.714284
v -0.999999 -0.770376 0.844361
v -0.999964 -0.575716 1.405765
v -0.999964 -0.445665 1.600424
v -0.999964 -0.400007 1.830035
v -0.999964 -0.445692 2.059639
v 0.650000 -0.437757 0.060367
v -0.649964 -0.445676 0.060331
v 0.650000 -0.400036 0.250000
v 0.650000 -0.445706 0.479596
v 0.650036 -0.575766 0.674284
v -0.650036 -0.770425 0.844335
v -0.650036 -0.575766 0.714284
v -0.650036 -0.445692 0.519640
v -0.650036 -0.400007 0.290035
v -0.650036 -0.445665 0.060424
v 0.999970 0.999974 0.824757
v 0.999964 -0.158610 2.060330
v -0.999964 -0.158606 2.060329
v -1.000000 0.999964 0.824710
v 0.969845 0.999974 0.868669
v 0.883955 0.914091 1.085456
v 0.883955 0.085848 1.968739
v 0.976114 -0.126009 2.060330
v -0.976116 -0.126009 2.060329
v -0.883959 0.085846 1.968736
v -0.883988 0.914083 1.085421
v -0.969873 0.999965 0.868629
vt 0.000000 0.660766
vt 0.000000 0.583890
vt 0.058497 0.583883
vt 0.058504 0.415910
vt 0.275796 0.415909
vt 0.275795 0.583883
vt 0.334292 0.583890
vt 0.334292 0.652673
vt 0.275789 0.652673
vt 0.275789 0.820529
vt 0.058503 0.820529
vt 0.058503 0.660766
vt 0.292504 0.952761
vt 0.292504 1.000000
vt 0.234001 1.000000
vt 0.234013 0.952761
vt 0.768892 0.982713
vt 0.768892 0.936317
vt 0.827389 0.936312
vt 0.827389 0.982713
vt 0.768892 0.980186
vt 0.730520 0.970898
vt 0.697984 0.944439
vt 0.676243 0.904841
vt 0.668608 0.858130
vt 0.676240 0.811418
vt 0.676309 0.811269
vt 0.768892 0.811271
vt 0.426879 0.406894
vt 0.474937 0.406891
vt 0.668603 0.658268
vt 0.668608 0.813773
vt 0.426968 0.813773
vt 0.434598 0.767059
vt 0.426960 0.720346
vt 0.405217 0.680747
vt 0.372687 0.654284
vt 0.334304 0.644994
vt 0.334308 0.575827
vt 0.372675 0.566536
vt 0.405221 0.540065
vt 0.426957 0.500461
vt 0.434588 0.453747
vt 0.426950 0.407034
vt 0.434588 0.813773
vt 0.434588 0.982687
vt 0.342014 0.982688
vt 0.341940 0.982554
vt 0.334304 0.935841
vt 0.341936 0.889127
vt 0.363682 0.849523
vt 0.396220 0.823055
vt 0.534878 0.813780
vt 0.442220 0.813792
vt 0.234001 0.902626
vt 0.234001 0.941796
vt 0.175504 0.941795
vt 0.175504 0.902619
vt 0.668604 0.164449
vt 0.654248 0.208554
vt 0.515805 0.388257
vt 0.480393 0.406891
vt 0.668604 0.155515
vt 0.000000 0.820662
vt 0.000000 0.820531
vt 0.058497 0.820669
vt 0.117012 0.950046
vt 0.175504 0.950045
vt 0.117000 0.950065
vt 0.534878 0.982576
vt 0.496504 0.973278
vt 0.463967 0.946819
vt 0.442225 0.907219
vt 0.434588 0.860506
vt 0.000003 0.955721
vt 0.000002 0.913568
vt 0.058499 0.913572
vt 0.058500 0.955721
vt 0.768892 0.896991
vt 0.827389 0.897000
vt 0.515797 0.425524
vt 0.654244 0.605227
vt 0.668602 0.649333
vt 0.292504 0.910264
vt 0.234013 0.910265
vt 0.175504 0.857139
vt 0.175504 0.820530
vt 0.233996 0.820529
vt 0.234001 0.857148
vt 0.117000 0.820529
vt 0.117000 0.820660
vt 0.117000 0.866140
vt 0.058509 0.866140
vt 0.117000 0.913566
vt 0.117000 0.955720
vt 0.768892 0.857666
vt 0.827383 0.857666
vt 0.827389 0.811269
vt 0.117012 0.902619
vt 0.117012 0.857139
vt 0.234001 0.863017
vt 0.292499 0.820529
vt 0.292498 0.863026
vt 0.668604 0.000000
vt 0.906830 0.000006
vt 0.906836 0.070768
vt 1.000000 0.070775
vt 1.000000 0.333615
vt 0.908147 0.333616
vt 0.908148 0.404384
vt 0.668604 0.404392
vt 0.428290 0.000000
vt 0.426958 0.406751
vt 0.434594 0.360038
vt 0.426962 0.313324
vt 0.405224 0.273721
vt 0.372678 0.247252
vt 0.334310 0.237963
vt 0.334304 0.160658
vt 0.372678 0.151360
vt 0.405216 0.124901
vt 0.426958 0.085301
vt 0.434594 0.038588
vt 0.635164 0.813773
vt 0.635164 0.974431
vt 0.541184 0.974431
vt 0.534878 0.935850
vt 0.542512 0.889139
vt 0.564252 0.849530
vt 0.596790 0.823071
vt 0.000001 0.866142
vt 0.019392 0.207781
vt 0.019396 0.000000
vt 0.314906 0.000000
vt 0.314907 0.207775
vt 0.814697 0.806447
vt 0.809249 0.811269
vt 0.761191 0.811269
vt 0.761188 0.740515
vt 0.668614 0.740508
vt 0.668608 0.477660
vt 0.761190 0.477660
vt 0.761190 0.406891
vt 0.809248 0.406891
vt 0.814697 0.411714
vt 0.329264 0.254344
vt 0.005036 0.254352
vt 0.850135 0.430348
vt 0.850135 0.787813
vt 0.334304 0.415909
vt 0.000000 0.415909
vt 0.000000 0.263130
vt 0.334299 0.263121
vn -0.000000 -1.000000 0.000000
vn 0.000000 -0.195200 -0.980800
vn 0.000100 -0.195100 0.980800
vn 1.000000 -0.000000 0.000000
vn -1.000000 -0.000000 0.000000
vn -1.000000 -0.000100 -0.000000
vn -0.796000 -0.000000 -0.605200
vn 0.000100 -0.980800 0.195100
vn 0.706100 0.516600 0.484400
vn 0.000000 -0.861700 -0.507500
vn 0.000000 -0.993600 0.113200
vn 0.000100 -0.831500 0.555500
vn 0.000100 -0.555600 0.831500
vn -0.706100 0.516600 0.484400
vn 0.000000 -0.555500 -0.831500
vn 0.000100 -0.831500 -0.555600
vn 0.000100 -0.980800 -0.195100
vn -0.000000 -0.841400 -0.540400
vn 0.000000 -0.980800 -0.195100
vn 0.000000 -0.980800 0.195000
vn -0.000100 -0.831500 0.555600
vn -0.000000 -0.555600 0.831400
vn -0.000100 -0.195000 0.980800
vn -0.000000 -0.831400 -0.555600
vn -0.000100 -0.555600 -0.831400
vn -0.000100 -0.195200 -0.980800
vn -0.000000 -0.000000 -1.000000
vn 1.000000 -0.000100 -0.000000
vn -0.000000 0.729500 0.684000
vn -0.000000 -0.000000 1.000000
vn -0.000000 0.929700 0.368300
vn -0.000000 0.396800 0.917900
vn -0.000000 1.000000 -0.000000
usemtl el_car
s off
f 1/1/1 2/2/1 3/3/1 4/4/1 5/5/1 6/6/1 7/7/1 8/8/1 9/9/1 10/10/1 11/11/1 12/12/1
f 13/13/2 1/14/2 12/15/2 14/16/2
f 2/17/3 22/18/3 26/19/3 3/20/3
f 3/21/4 26/22/4 27/23/4 28/24/4 29/25/4 30/26/4 31/27/4 4/28/4
f 32/29/5 62/30/5 63/31/5 40/32/5 41/33/5 42/34/5 43/35/5 44/36/5 45/37/5 8/38/5 7/39/5 39/40/5 46/41/5 47/42/5 48/43/5 49/44/5
f 6/45/6 5/46/6 33/47/6 34/48/6 35/49/6 36/50/6 37/51/6 38/52/6
f 10/53/7 59/54/7 51/54/7
f 52/55/8 50/56/8 15/57/8 25/58/8
f 64/59/9 65/60/9 66/61/9 67/62/9 61/30/9 60/63/9
f 18/64/10 17/65/10 31/11/10 30/66/10
f 59/67/11 41/68/11 51/69/11
f 59/54/6 10/53/6 9/70/6 55/71/6 56/72/6 57/73/6 58/74/6
f 21/75/12 20/76/12 28/77/12 27/78/12
f 22/18/13 21/79/13 27/80/13 26/19/13
f 68/62/14 69/81/14 70/82/14 71/83/14 63/31/14 62/30/14
f 23/84/15 13/13/15 14/16/15 54/85/15
f 24/86/16 23/87/16 54/88/16 53/89/16
f 25/58/17 24/86/17 53/89/17 52/55/17
f 33/11/18 32/90/18 49/91/18 34/66/18
f 49/91/19 48/92/19 35/93/19 34/66/19
f 48/92/20 47/94/20 36/77/20 35/93/20
f 47/94/21 46/95/21 37/78/21 36/77/21
f 46/79/22 39/96/22 38/97/22 37/80/22
f 39/96/23 7/28/23 6/98/23 38/97/23
f 42/58/20 41/68/20 59/67/20 58/99/20
f 43/86/19 42/58/19 58/99/19 57/100/19
f 44/87/24 43/86/24 57/100/24 56/90/24
f 45/101/25 44/88/25 56/102/25 55/103/25
f 9/84/26 8/85/26 45/101/26 55/103/26
f 16/104/27 15/105/27 50/106/27 11/107/27 10/108/27 51/109/27 41/110/27 40/111/27
f 15/112/4 16/104/4 60/63/4 61/30/4 17/29/4 18/113/4 19/114/4 20/115/4 21/116/4 22/117/4 2/118/4 1/119/4 13/120/4 23/121/4 24/122/4 25/123/4
f 12/124/28 11/125/28 50/126/28 52/127/28 53/128/28 54/129/28 14/130/28
f 19/131/17 18/64/17 30/66/17 29/93/17
f 20/76/8 19/131/8 29/93/8 28/77/8
f 70/132/29 69/133/29 66/134/29 65/135/29
f 68/136/30 62/137/30 32/138/30 33/139/30 5/140/30 4/141/30 31/142/30 17/143/30 61/144/30 67/145/30
f 64/146/31 71/147/31 70/132/31 65/135/31
f 68/136/32 67/145/32 66/148/32 69/149/32
f 16/150/33 40/151/33 63/152/33 71/147/33 64/146/33 60/153/33
