# Blender v2.75 (sub 0) OBJ File: 'PineTree_02.blend'
# www.blender.org
mtllib PineTree_02.mtl
o Cube.003_Cube.004
v -0.571504 8.567866 -0.631788
v -1.232787 8.360197 -0.816259
v 0.623698 8.633510 -1.472590
v 1.180714 9.250803 0.360028
v 0.427259 9.017981 0.164223
v 0.407311 8.793553 -0.668495
v 1.783649 5.543971 -1.733596
v -1.822294 5.421796 -1.396841
v -0.423972 8.855340 0.323657
v -0.675771 8.977489 1.016359
v -0.520760 10.862864 -0.770743
v 2.100958 6.015951 1.835365
v -1.504985 5.893776 2.172119
v -0.803447 5.561316 -0.672760
v -0.540812 5.819533 1.247935
v 1.043027 5.883131 1.177536
v 1.193512 5.670351 -0.536442
v -2.824020 1.408134 2.696798
v -2.824020 2.068974 -2.838052
v 2.741549 1.657026 -2.887237
v 2.741549 0.996187 2.647613
vn 0.226500 -0.941800 0.248400
vn -0.098600 0.272000 -0.957200
vn -0.346200 0.115400 -0.931100
vn 0.756200 0.515200 -0.403400
vn 0.895600 0.423800 -0.135700
vn 0.045400 -0.990900 0.127000
vn -0.931600 0.361900 0.035000
vn 0.062700 0.511900 0.856800
vn 0.156700 0.672600 0.723200
vn -0.943800 0.264900 0.197600
vn -0.074300 -0.990200 -0.118200
vn 0.030500 0.297600 0.954200
vn -0.879000 0.473500 0.056500
vn 0.030500 0.513900 -0.857300
vn 0.940000 0.338900 0.040500
usemtl TreeBranches
s off
f 1//1 2//1 3//1 4//1 5//1 6//1
f 6//2 7//2 8//2 1//2
f 1//1 9//1 5//1 4//1 10//1 2//1
f 11//3 3//3 2//3
f 11//4 4//4 3//4
f 5//5 12//5 7//5 6//5
f 13//6 8//6 14//6 15//6 16//6 12//6
f 8//6 7//6 12//6 16//6 17//6 14//6
f 1//7 8//7 13//7 9//7
f 9//8 13//8 12//8 5//8
f 11//9 10//9 4//9
f 11//10 2//10 10//10
f 18//11 19//11 20//11 21//11
f 15//12 18//12 21//12 16//12
f 14//13 19//13 18//13 15//13
f 17//14 20//14 19//14 14//14
f 16//15 21//15 20//15 17//15
o Cube
v 1.011123 0.011013 -1.022336
v 1.011123 0.011013 0.985606
v -0.996819 0.011013 0.985606
v -0.996818 0.011013 -1.022336
v 0.893275 1.547648 -0.809012
v -0.682406 1.664010 -0.792858
v 0.907811 1.358117 0.769269
v -0.716936 1.482474 0.749298
vn 0.000000 -1.000000 0.000000
vn 0.000000 0.137500 -0.990500
vn 0.997100 0.076500 0.000000
vn -0.000000 0.158600 0.987300
vn -0.982400 0.186900 -0.000000
vn 0.074300 0.990200 0.118200
usemtl TreeTrunks
s off
f 22//16 23//16 24//16 25//16
f 26//17 22//17 25//17 27//17
f 28//18 23//18 22//18 26//18
f 29//19 24//19 23//19 28//19
f 27//20 25//20 24//20 29//20
f 28//21 26//21 27//21 29//21
