# Blender v2.75 (sub 0) OBJ File: 'Boulder_0.blend'
# www.blender.org
mtllib Boulder_0.mtl
o Icosphere.001
v 0.149110 3.731602 -0.132319
v -2.185360 2.965478 1.889458
v 1.332168 2.904150 2.994331
v 3.382238 2.904140 0.172676
v 0.869240 2.786251 -3.010021
v -2.036749 2.550652 -1.776419
v -0.817589 0.626611 3.134958
v 2.851665 0.626611 1.942724
v 2.851665 0.626611 -1.915333
v -0.817589 0.711358 -3.107567
v -3.085339 0.626622 0.013695
v 0.196553 0.056113 0.013695
v 0.792647 3.747884 1.848313
v -1.364070 3.647841 1.147542
v -0.767983 3.170795 2.982178
v -2.802207 2.853158 0.441834
v -1.962111 3.012469 -0.403240
v 2.125599 3.647834 0.013695
v 2.698138 3.089754 1.831196
v 0.631924 3.202321 -1.726353
v 2.040846 2.972988 -1.942146
v -0.664356 2.633427 -2.734867
v -3.093593 1.796045 1.147546
v -2.775447 1.796045 -1.120155
v 0.415372 1.846968 3.489737
v -1.816765 1.796045 2.748358
v 3.570088 1.846968 1.197690
v 2.365093 1.846968 2.856234
v 2.232785 1.796044 -2.792041
v 3.570088 1.846968 -0.852337
v -1.717010 1.796045 -2.655825
v 0.196554 1.796045 -3.472103
v -2.328600 0.421298 1.848320
v 1.161090 0.421295 2.982178
v 3.317811 0.421299 0.013695
v 1.161090 0.421295 -2.954787
v -2.328600 0.421298 -1.820929
v -0.399540 -0.003982 1.848313
v -1.732491 -0.003975 0.013695
v 1.757178 -0.003982 1.147542
v 1.757178 -0.003982 -1.120151
v -0.399540 0.113807 -1.820922
v -0.990559 3.095658 -1.183036
vn -0.048800 0.998800 0.007700
vn -0.537800 0.826700 0.165000
vn 0.044000 0.998800 -0.022500
vn 0.062400 0.952700 -0.297400
vn -0.180300 0.915900 -0.358700
vn -0.835800 0.445100 0.321600
vn 0.044500 0.392000 0.918900
vn 0.846100 0.440900 0.299600
vn 0.509300 0.556900 -0.656100
vn -0.496300 0.561400 -0.662200
vn -0.764800 0.207000 0.610100
vn 0.304300 0.175000 0.936400
vn 0.984600 0.175000 0.000000
vn 0.308900 0.221800 -0.924900
vn -0.785900 0.298300 -0.541700
vn -0.199300 -0.904000 0.378300
vn 0.298200 -0.904000 0.306400
vn 0.383600 -0.904000 -0.188900
vn -0.103900 -0.914500 -0.391000
vn -0.421400 -0.904000 -0.072600
vn 0.101300 0.823300 0.558500
vn -0.138500 0.946600 0.291100
vn -0.392200 0.851200 0.348800
vn -0.431400 0.861900 -0.266400
vn -0.388300 0.895600 -0.217200
vn -0.273700 0.925100 -0.263100
vn 0.496100 0.861500 0.108200
vn 0.322400 0.928600 0.183600
vn 0.291200 0.830700 0.474500
vn 0.110700 0.951200 -0.287900
vn 0.102500 0.939000 -0.328400
vn 0.513700 0.803900 -0.299700
vn -0.283400 0.901200 -0.328000
vn -0.166400 0.934900 -0.313500
vn -0.152100 0.931600 -0.330100
vn -0.982300 0.126700 -0.137800
vn -0.974600 0.177400 -0.136700
vn -0.802900 0.487200 -0.343500
vn -0.315800 0.043500 0.947800
vn -0.315800 0.080200 0.945400
vn -0.604700 0.338800 0.720800
vn 0.803500 -0.116600 0.583800
vn 0.781400 0.258900 0.567700
vn 0.546400 0.440900 0.712100
vn 0.823100 0.010000 -0.567800
vn 0.715400 0.482000 -0.505900
vn 0.714000 0.548600 -0.435000
vn -0.391700 0.057600 -0.918300
vn -0.363500 0.376500 -0.852100
vn -0.200700 0.522900 -0.828400
vn -0.603400 -0.267200 0.751300
vn -0.776500 -0.116400 0.619300
vn -0.886400 -0.325400 0.329200
vn 0.518800 -0.370000 0.770700
vn 0.304300 -0.174200 0.936500
vn 0.040400 -0.316300 0.947800
vn 0.913900 -0.316300 -0.254500
vn 0.984700 -0.174200 0.000000
vn 0.893300 -0.370000 0.255200
vn 0.023100 -0.337800 -0.940900
vn 0.313900 -0.133500 -0.940000
vn 0.524500 -0.315300 -0.790800
vn -0.923000 -0.112300 -0.368100
vn -0.823200 0.021600 -0.567400
vn -0.614800 -0.191200 -0.765100
vn 0.031100 -0.999300 -0.022600
vn -0.212700 -0.964800 0.154500
vn -0.421400 -0.904000 0.072600
vn -0.011900 -0.999300 -0.036600
vn 0.081200 -0.964800 0.250000
vn -0.061100 -0.904000 0.423200
vn -0.038500 -0.999300 0.000000
vn 0.262900 -0.964800 0.000000
vn 0.383600 -0.904000 0.188900
vn -0.049600 -0.998700 -0.015300
vn 0.022500 -0.972300 -0.232700
vn 0.298200 -0.904000 -0.306400
vn 0.031100 -0.998700 -0.041500
vn -0.155000 -0.972300 -0.175000
vn -0.145800 -0.914500 -0.377400
vn -0.291000 0.919400 -0.264500
vn -0.308800 0.906400 -0.288100
usemtl Material
s off
f 1//1 14//1 13//1
f 2//2 14//2 16//2
f 1//3 13//3 18//3
f 1//4 18//4 20//4
f 1//5 20//5 43//5
f 2//6 16//6 23//6
f 3//7 15//7 25//7
f 4//8 19//8 27//8
f 5//9 21//9 29//9
f 6//10 22//10 31//10
f 2//11 23//11 26//11
f 3//12 25//12 28//12
f 4//13 27//13 30//13
f 5//14 29//14 32//14
f 6//15 31//15 24//15
f 7//16 33//16 38//16
f 8//17 34//17 40//17
f 9//18 35//18 41//18
f 10//19 36//19 42//19
f 11//20 37//20 39//20
f 13//21 15//21 3//21
f 13//22 14//22 15//22
f 14//23 2//23 15//23
f 16//24 17//24 6//24
f 16//25 14//25 17//25
f 14//26 1//26 43//26
f 18//27 19//27 4//27
f 18//28 13//28 19//28
f 13//29 3//29 19//29
f 20//30 21//30 5//30
f 20//31 18//31 21//31
f 18//32 4//32 21//32
f 43//33 22//33 6//33
f 43//34 20//34 22//34
f 20//35 5//35 22//35
f 23//36 24//36 11//36
f 23//37 16//37 24//37
f 16//38 6//38 24//38
f 25//39 26//39 7//39
f 25//40 15//40 26//40
f 15//41 2//41 26//41
f 27//42 28//42 8//42
f 27//43 19//43 28//43
f 19//44 3//44 28//44
f 29//45 30//45 9//45
f 29//46 21//46 30//46
f 21//47 4//47 30//47
f 31//48 32//48 10//48
f 31//49 22//49 32//49
f 22//50 5//50 32//50
f 26//51 33//51 7//51
f 26//52 23//52 33//52
f 23//53 11//53 33//53
f 28//54 34//54 8//54
f 28//55 25//55 34//55
f 25//56 7//56 34//56
f 30//57 35//57 9//57
f 30//58 27//58 35//58
f 27//59 8//59 35//59
f 32//60 36//60 10//60
f 32//61 29//61 36//61
f 29//62 9//62 36//62
f 24//63 37//63 11//63
f 24//64 31//64 37//64
f 31//65 10//65 37//65
f 38//66 39//66 12//66
f 38//67 33//67 39//67
f 33//68 11//68 39//68
f 40//69 38//69 12//69
f 40//70 34//70 38//70
f 34//71 7//71 38//71
f 41//72 40//72 12//72
f 41//73 35//73 40//73
f 35//74 8//74 40//74
f 42//75 41//75 12//75
f 42//76 36//76 41//76
f 36//77 9//77 41//77
f 39//78 42//78 12//78
f 39//79 37//79 42//79
f 37//80 10//80 42//80
f 14//81 43//81 17//81
f 6//82 17//82 43//82
