# Blender v2.75 (sub 0) OBJ File: 'LampPost_01.blend'
# www.blender.org
mtllib LampPost_01.mtl
o Cube.001_Cube.002
v 0.533325 14.999979 0.008003
v 0.961278 14.999979 -0.228721
v 1.389231 14.999979 0.008003
v 0.961278 14.999979 0.244728
v 0.961278 14.862869 0.008003
v 0.961278 15.137089 0.008003
v 0.640313 14.999979 0.185547
v 0.640313 15.102812 0.008003
v 0.640313 14.999979 -0.169540
v 0.640313 14.897146 0.008003
v 0.961278 15.102812 -0.169540
v 1.282243 14.999979 -0.169540
v 0.961278 14.897146 -0.169540
v 1.282243 15.102812 0.008003
v 1.282243 14.999979 0.185547
v 1.282243 14.897146 0.008003
v 0.961278 15.102812 0.185547
v 0.961278 14.897146 0.185547
v 0.723526 14.923806 0.139517
v 0.723526 15.076151 0.139517
v 0.723526 14.923806 -0.123510
v 0.723526 15.076151 -0.123510
v 1.199030 14.923806 0.139517
v 1.199030 15.076151 0.139517
v 1.199030 14.923806 -0.123510
v 1.199030 15.076151 -0.123510
vn -0.569600 0.711200 0.411900
vn -0.569600 0.711200 -0.411900
vn -0.569700 -0.711200 -0.411900
vn -0.569700 -0.711200 0.411900
vn -0.179100 0.559100 -0.809500
vn 0.179100 0.559100 -0.809500
vn 0.179100 -0.559100 -0.809500
vn -0.179100 -0.559100 -0.809500
vn 0.569600 0.711200 -0.411900
vn 0.569600 0.711200 0.411900
vn 0.569700 -0.711200 0.411900
vn 0.569700 -0.711200 -0.411900
vn 0.179100 0.559100 0.809500
vn -0.179100 0.559100 0.809500
vn -0.179100 -0.559100 0.809500
vn 0.179100 -0.559100 0.809500
vn -0.123900 -0.966700 0.224000
vn -0.123900 -0.966700 -0.224000
vn 0.123900 -0.966700 -0.224000
vn 0.123900 -0.966700 0.224000
vn 0.123900 0.966700 0.224000
vn 0.123900 0.966700 -0.224000
vn -0.123900 0.966700 -0.224000
vn -0.123900 0.966700 0.224000
usemtl Lamp
s off
f 1//1 7//1 20//1 8//1
f 1//2 8//2 22//2 9//2
f 1//3 9//3 21//3 10//3
f 1//4 10//4 19//4 7//4
f 2//5 9//5 22//5 11//5
f 2//6 11//6 26//6 12//6
f 2//7 12//7 25//7 13//7
f 2//8 13//8 21//8 9//8
f 3//9 12//9 26//9 14//9
f 3//10 14//10 24//10 15//10
f 3//11 15//11 23//11 16//11
f 3//12 16//12 25//12 12//12
f 4//13 15//13 24//13 17//13
f 4//14 17//14 20//14 7//14
f 4//15 7//15 19//15 18//15
f 4//16 18//16 23//16 15//16
f 5//17 18//17 19//17 10//17
f 5//18 10//18 21//18 13//18
f 5//19 13//19 25//19 16//19
f 5//20 16//20 23//20 18//20
f 6//21 17//21 24//21 14//21
f 6//22 14//22 26//22 11//22
f 6//23 11//23 22//23 8//23
f 6//24 8//24 20//24 17//24
o Cube_Cube.001
v -0.056378 15.581703 0.176880
v -0.056378 15.581703 -0.176880
v 1.565579 15.000000 0.430244
v 1.341115 15.433187 0.238095
v 1.565579 15.000000 -0.430244
v 1.341115 15.433187 -0.238095
v 0.000000 15.000000 0.350000
v -0.000000 15.000000 -0.350000
v -0.205725 15.000000 -0.283156
v -0.332870 15.000000 -0.108156
v -0.332870 15.000000 0.108156
v -0.205725 15.000000 0.283156
v -0.056378 15.581703 0.000000
v 0.205725 15.000000 0.283156
v 0.332870 15.000000 0.108156
v 0.332870 15.000000 -0.108156
v 0.205725 15.000000 -0.283156
vn -0.771600 0.300500 0.560600
vn -0.011800 0.284200 0.958700
vn 0.887900 0.460100 0.000000
vn -0.011800 0.284200 -0.958700
vn -0.047300 0.384500 -0.921900
vn 0.105700 0.994400 0.000000
vn -0.047300 0.384500 0.921900
vn -0.299600 0.245400 0.922000
vn -0.771600 0.300500 -0.560600
vn -0.299600 0.245400 -0.922000
vn -0.903200 0.429300 0.000000
vn 0.000000 -1.000000 -0.000000
usemtl Post
s off
f 37//25 38//25 27//25
f 27//26 33//26 30//26
f 32//27 30//27 29//27 31//27
f 32//28 34//28 28//28
f 31//29 34//29 32//29
f 30//30 32//30 28//30 39//30 27//30
f 29//31 30//31 33//31
f 33//32 27//32 38//32
f 35//33 36//33 28//33
f 34//34 35//34 28//34
f 28//35 36//35 39//35
f 36//35 37//35 39//35
f 39//35 37//35 27//35
f 40//36 41//36 42//36 43//36 34//36 31//36 29//36 33//36
o Cylinder.001
v 0.000000 5.000000 -0.350000
v 0.000000 15.000000 -0.350000
v 0.205725 5.000000 -0.283156
v 0.205725 15.000000 -0.283156
v 0.332870 5.000000 -0.108156
v 0.332870 15.000000 -0.108156
v 0.332870 5.000000 0.108156
v 0.332870 15.000000 0.108156
v 0.205725 5.000000 0.283156
v 0.205725 15.000000 0.283156
v -0.000000 5.000000 0.350000
v -0.000000 15.000000 0.350000
v -0.205725 5.000000 0.283156
v -0.205725 15.000000 0.283156
v -0.332870 5.000000 0.108156
v -0.332870 15.000000 0.108156
v -0.332870 5.000000 -0.108156
v -0.332870 15.000000 -0.108156
v -0.205725 5.000000 -0.283156
v -0.205725 15.000000 -0.283156
vn 0.309000 0.000000 -0.951100
vn 0.809000 0.000000 -0.587800
vn 1.000000 0.000000 0.000000
vn 0.809000 0.000000 0.587800
vn 0.309000 0.000000 0.951100
vn -0.309000 0.000000 0.951100
vn -0.809000 0.000000 0.587800
vn -1.000000 0.000000 0.000000
vn 0.000000 1.000000 0.000000
vn -0.309000 0.000000 -0.951100
vn -0.809000 0.000000 -0.587800
vn 0.000000 -1.000000 0.000000
usemtl Post
s off
f 44//37 45//37 47//37 46//37
f 46//38 47//38 49//38 48//38
f 48//39 49//39 51//39 50//39
f 50//40 51//40 53//40 52//40
f 52//41 53//41 55//41 54//41
f 54//42 55//42 57//42 56//42
f 56//43 57//43 59//43 58//43
f 58//44 59//44 61//44 60//44
f 47//45 45//45 63//45 61//45 59//45 57//45 55//45 53//45 51//45 49//45
f 62//46 63//46 45//46 44//46
f 60//47 61//47 63//47 62//47
f 44//48 46//48 48//48 50//48 52//48 54//48 56//48 58//48 60//48 62//48
o Cylinder
v 0.000000 0.000000 -0.500000
v 0.000000 5.000000 -0.500000
v 0.293893 0.000000 -0.404509
v 0.293893 5.000000 -0.404509
v 0.475528 0.000000 -0.154508
v 0.475528 5.000000 -0.154508
v 0.475528 0.000000 0.154509
v 0.475528 5.000000 0.154509
v 0.293893 0.000000 0.404509
v 0.293893 5.000000 0.404509
v -0.000000 0.000000 0.500000
v -0.000000 5.000000 0.500000
v -0.293893 0.000000 0.404508
v -0.293893 5.000000 0.404508
v -0.475528 0.000000 0.154509
v -0.475528 5.000000 0.154509
v -0.475528 0.000000 -0.154509
v -0.475528 5.000000 -0.154509
v -0.293892 0.000000 -0.404509
v -0.293892 5.000000 -0.404509
v 0.000000 5.161272 -0.350000
v 0.205725 5.161272 -0.283156
v 0.332870 5.161272 -0.108156
v 0.332870 5.161272 0.108156
v 0.205725 5.161272 0.283156
v 0.000000 5.161272 0.350000
v -0.205725 5.161272 0.283156
v -0.332870 5.161272 0.108156
v -0.332870 5.161272 -0.108156
v -0.205725 5.161272 -0.283156
vn 0.309000 0.000000 -0.951100
vn 0.809000 0.000000 -0.587800
vn 1.000000 0.000000 0.000000
vn 0.809000 0.000000 0.587800
vn 0.309000 0.000000 0.951100
vn -0.309000 0.000000 0.951100
vn -0.809000 0.000000 0.587800
vn -1.000000 0.000000 0.000000
vn -0.606000 0.662600 -0.440300
vn -0.309000 0.000000 -0.951100
vn -0.809000 0.000000 -0.587800
vn 0.000000 -1.000000 0.000000
vn 0.000000 1.000000 0.000000
vn -0.749000 0.662600 0.000000
vn -0.606000 0.662600 0.440300
vn -0.231500 0.662600 0.712300
vn 0.231500 0.662600 0.712300
vn 0.606000 0.662600 0.440300
vn 0.231500 0.662600 -0.712300
vn 0.749000 0.662600 -0.000000
vn 0.606000 0.662600 -0.440300
vn -0.231500 0.662600 -0.712300
usemtl Post
s off
f 64//49 65//49 67//49 66//49
f 66//50 67//50 69//50 68//50
f 68//51 69//51 71//51 70//51
f 70//52 71//52 73//52 72//52
f 72//53 73//53 75//53 74//53
f 74//54 75//54 77//54 76//54
f 76//55 77//55 79//55 78//55
f 78//56 79//56 81//56 80//56
f 83//57 81//57 92//57 93//57
f 82//58 83//58 65//58 64//58
f 80//59 81//59 83//59 82//59
f 64//60 66//60 68//60 70//60 72//60 74//60 76//60 78//60 80//60 82//60
f 85//61 84//61 93//61 92//61 91//61 90//61 89//61 88//61 87//61 86//61
f 81//62 79//62 91//62 92//62
f 79//63 77//63 90//63 91//63
f 77//64 75//64 89//64 90//64
f 75//65 73//65 88//65 89//65
f 73//66 71//66 87//66 88//66
f 67//67 65//67 84//67 85//67
f 71//68 69//68 86//68 87//68
f 69//69 67//69 85//69 86//69
f 65//70 83//70 93//70 84//70
